Coordinates
version=1
nRows=5
nColumns=63
inDegrees=yes

Units are S.I. units (second, meters, Newtons, ...)
If the header above contains a line with 'inDegrees', this indicates whether rotational values are in degrees (yes) or radians (no).

endheader
time	pelvis_tilt	pelvis_list	pelvis_rotation	pelvis_tx	pelvis_ty	pelvis_tz	hip_flexion_r	hip_adduction_r	hip_rotation_r	knee_angle_r	knee_angle_r_beta	ankle_angle_r	subtalar_angle_r	mtp_angle_r	hip_flexion_l	hip_adduction_l	hip_rotation_l	knee_angle_l	knee_angle_l_beta	ankle_angle_l	subtalar_angle_l	mtp_angle_l	L5_S1_Flex_Ext	L5_S1_Lat_Bending	L5_S1_axial_rotation	L4_L5_Flex_Ext	L4_L5_Lat_Bending	L4_L5_axial_rotation	L3_L4_Flex_Ext	L3_L4_Lat_Bending	L3_L4_axial_rotation	L2_L3_Flex_Ext	L2_L3_Lat_Bending	L2_L3_axial_rotation	L1_L2_Flex_Ext	L1_L2_Lat_Bending	L1_L2_axial_rotation	L1_T12_Flex_Ext	L1_T12_Lat_Bending	L1_T12_axial_rotation	Abs_r3	Abs_r2	Abs_r1	Abs_t1	Abs_t2	neck_flexion	neck_bending	neck_rotation	arm_flex_r	arm_add_r	arm_rot_r	elbow_flex_r	pro_sup_r	wrist_flex_r	wrist_dev_r	arm_flex_l	arm_add_l	arm_rot_l	elbow_flex_l	pro_sup_l	wrist_flex_l	wrist_dev_l
      1.90000000	      3.35101291	    -10.24540488	     69.88436969	      0.12397738	      1.08552489	     -0.06902598	      4.05844069	      1.05848071	     16.04871049	      6.31476888	      0.11021351	     33.11853750	      0.81989724	      0.00000000	      3.34349872	     -0.17730764	     -9.28034192	     12.51624376	      0.21844966	     31.93204688	    -13.77378273	      0.00000000	      0.13718964	      0.71985303	      1.03547284	      0.25477488	      0.95740453	      1.10018989	      0.22538886	      1.75025065	      1.10018989	      0.15679404	      1.75025065	      0.90603873	      0.12739430	      1.46792429	      0.84132168	      0.07839016	      1.11505234	      0.77660463	      0.97993186	      8.14312142	      5.75898929	      0.00000000	      0.00000000	     26.40850426	     -5.24457975	      1.59459992	    -16.90513379	    -17.63499468	      6.67232514	     78.82258781	     88.32368618	     -8.15182445	      0.75519105	     20.06999644	      2.77975349	     24.91437656	    103.77873843	     89.15175868	    -12.21504645	     -3.35907682
      1.91666667	      3.41839632	    -10.35926855	     68.76570467	      0.12580265	      1.08492864	     -0.06850352	      4.13466414	      1.37805504	     19.95790725	      6.15591897	      0.10744105	     32.42509433	     -2.97924765	      0.00000000	      3.50794945	     -0.54310019	    -11.09087184	     12.86669048	      0.22456611	     33.00292458	    -12.64691081	      0.00000000	      0.15530528	      0.74366220	      1.21156614	      0.28841743	      0.98907073	      1.28728902	      0.25515104	      1.80814028	      1.28728902	      0.17749840	      1.80814028	      1.06012037	      0.14421648	      1.51647596	      0.98439749	      0.08874144	      1.15193275	      0.90867460	      1.10933008	      8.41245558	      6.73836740	      0.00000000	      0.00000000	     26.77365186	     -5.09968906	      2.38027943	    -17.12087756	    -17.23306276	      6.14935283	     79.50714799	     88.28398485	     -6.99403489	     -0.52524624	     20.81048194	      3.38207386	     23.07994898	    101.54828566	     89.18767278	     -0.10453649	      4.64897209
      1.93333333	      3.41133997	    -10.47585386	     67.81129134	      0.12721848	      1.08459729	     -0.06790222	      4.34767461	      1.53419498	     21.74525300	      6.18851085	      0.10800989	     32.19199265	     -4.24295738	      0.00000000	      3.67319613	     -0.70713365	    -11.84723289	     13.07774555	      0.22824972	     33.71906699	    -12.68879973	      0.00000000	      0.16865549	      0.75675453	      1.31070858	      0.31321010	      1.00648352	      1.39262787	      0.27708410	      1.83997296	      1.39262787	      0.19275636	      1.83997296	      1.14687001	      0.15661348	      1.54317384	      1.06495073	      0.09636975	      1.17221277	      0.98303144	      1.20468928	      8.56055859	      7.28976794	      0.00000000	      0.00000000	     27.01866520	     -4.81295558	      3.32350365	    -16.91646986	    -17.24237597	      6.48178266	     80.02002284	     88.20365914	     -6.22810023	     -2.15561782	     21.37051382	      3.27655258	     23.10826172	     99.15018121	     89.11767509	      4.83816834	      8.16447792
      1.95000000	      3.49547313	    -10.64878347	     67.45389015	      0.12786911	      1.08437140	     -0.06739834	      4.63134623	      1.75032177	     22.18125955	      6.40346434	      0.11176154	     32.12165977	     -4.59771328	      0.00000000	      3.90297601	     -0.91560857	    -11.91717220	     13.26273767	      0.23147844	     34.44871832	    -12.66818160	      0.00000000	      0.18059545	      0.77557030	      1.31776613	      0.33538382	      1.03150850	      1.40012651	      0.29670027	      1.88572162	      1.40012651	      0.20640254	      1.88572162	      1.15304536	      0.16770094	      1.58154295	      1.07068498	      0.10319224	      1.20135839	      0.98832460	      1.28997526	      8.77340633	      7.32901987	      0.00000000	      0.00000000	     27.19832061	     -4.44484563	      4.06783325	    -16.80842508	    -17.35497427	      6.77035255	     80.88804284	     88.13544183	     -5.88709841	     -3.44083351	     21.46280900	      2.94464918	     24.06629372	     97.03420258	     88.91757840	      6.48448232	      9.57609550
      1.96666667	      3.38553097	    -10.76457092	     67.08739480	      0.12862114	      1.08419937	     -0.06745889	      4.86472947	      1.74639866	     22.39430472	      6.60136572	      0.11521557	     32.15391854	     -4.68759563	      0.00000000	      3.90227127	     -0.83020966	    -11.85151518	     13.01154369	      0.22709428	     34.85120392	    -12.62741557	      0.00000000	      0.19725180	      0.76425773	      1.27840212	      0.36631631	      1.01646278	      1.35830225	      0.32406498	      1.85821624	      1.35830225	      0.22543908	      1.85821624	      1.11860185	      0.18316802	      1.55847436	      1.03870172	      0.11270968	      1.18383522	      0.95880159	      1.40894987	      8.64543627	      7.11008905	      0.00000000	      0.00000000	     27.29062137	     -4.32609719	      4.16899845	    -16.59531139	    -17.71170338	      7.50472162	     82.12810656	     88.15677813	     -5.44295202	     -4.06909411	     20.70602882	      2.75012934	     24.71373342	     95.44459474	     88.54484951	      7.03893528	     10.11997091
